<svg xmlns="http://www.w3.org/2000/svg" xmlns:xlink="http://www.w3.org/1999/xlink" viewBox="0 0 3760.21 4492.74"><defs><style>.cls-1{fill:#fff;stroke:#080405;}.cls-1,.cls-3,.cls-4,.cls-5,.cls-7,.cls-8{stroke-miterlimit:10;}.cls-1,.cls-3,.cls-8{stroke-width:7px;}.cls-2{fill:#030202;}.cls-3,.cls-5{fill:#fec013;}.cls-3,.cls-8{stroke:#231f20;}.cls-4,.cls-5{stroke:#39190f;}.cls-4{stroke-width:6px;fill:url(#linear-gradient);}.cls-5{stroke-width:5px;}.cls-6{fill:url(#linear-gradient-2);}.cls-7{fill:none;stroke:#fff;stroke-width:12px;}.cls-8{fill:#00aeef;}.cls-9{fill:#231f20;}</style><linearGradient id="linear-gradient" x1="1375.29" y1="2965.53" x2="2833.32" y2="2965.53" gradientUnits="userSpaceOnUse"><stop offset="0.04" stop-color="#fec013"/><stop offset="0.21" stop-color="#f5b915"/><stop offset="0.47" stop-color="#dea71b"/><stop offset="0.81" stop-color="#b78925"/><stop offset="1" stop-color="#9e752b"/></linearGradient><linearGradient id="linear-gradient-2" x1="1503.57" y1="2959.23" x2="2762.35" y2="2959.23" gradientUnits="userSpaceOnUse"><stop offset="0.13" stop-color="#be5460"/><stop offset="0.15" stop-color="#b7515c"/><stop offset="0.28" stop-color="#8d3d44"/><stop offset="0.41" stop-color="#6c2d31"/><stop offset="0.53" stop-color="#552224"/><stop offset="0.65" stop-color="#471b1c"/><stop offset="0.75" stop-color="#421919"/></linearGradient></defs><g id="Layer_2" data-name="Layer 2"><g id="Layer_1-2" data-name="Layer 1"><path class="cls-1" d="M2152.68,3.79V1456H2033.2l-19.45-164.31-129.3,23.44,23.13,162.32-110.3,21.45-39.77-161.51-128.61,38.89,48.89,159.38-110.3,46-67.4-153.19-116.43,55.15,73.54,150.13L1353,1698.09,1255,1551l-110.3,82.73,101.11,131.74-101.11,79.66-113.36-119.49-98,101.11,122.55,119.49L967,2035.11l-134.81-91.92-79.66,125.62,131.75,88.85-67.41,119.49-147.06-79.66S290.9,2770.43,617.71,3620.13c0,0-608.68-629.11-404.43-1646.3L60.09,1903.36s0-115.4,59.23-229.78l143,83.74s20.43-96,69.45-194L196.94,1448.9l98-198.13,126.64,112.34,110.3-185.87L415.49,1046.51,548.26,860.64,650.39,997.49,797.45,838.17,713.71,685,875.07,537.92,960.85,687l175.66-134.81L1065,397l194-122.55,55.15,167.49,198.12-96-38.8-167.49L1686,98.77l32.68,171.57L1927,213.15,1910.64,41.58S1961.71,19,2152.68,3.79Z"/><polygon class="cls-2" points="1135.49 1195.62 1207.49 1148.13 1196.77 942.85 1389.79 1377.92 1463.32 1347.28 1156.75 646.26 1086.47 694.68 1120.17 1086.85 841.37 927.53 781.62 988.81 1147.75 1515.79 1215.15 1472.9 950.13 1086.02 1135.49 1195.62"/><path class="cls-2" d="M698.39,1277.32c0-3.74-73.86,4.44-78.61,5.36-26.55,5.15-55,14.43-74.17,34.54-19.28,20.28-21.67,48.23-21,74.94,1.47,58.9,29.29,111.63,65.85,156.45,18.92,23.18,40,44.4,62,64.71,48.3,44.4,111.18,73,176.32,80.57,45.52,5.31,108.22,5.79,142.44-30.2,41.47-43.64,22.84-114.44,4-163.73l-64.34,15.83c4.42-1.09,17.46,48.82,18.14,52.69,5,28.51-1.17,57.73-32.81,65.39-34.26,8.3-75.11-5-107.14-17.27a345.66,345.66,0,0,1-81-44.6c-52.11-38.46-100-91.66-116.66-156.23-8.25-32-4.45-62.2,32.57-70.28,24.17-5.27,50.41-1.77,74.46,2.3Z"/><path class="cls-2" d="M481.88,1738.94c.44-1.09-39.38-.51-42.44.21-26.74,6.3-39.74,27.33-38.48,54.31.83,17.59,7.25,36.27,22.06,45.81,18.16,11.7,45.75,8.32,65,.77,40.22-15.77,74.53-48.29,116.52-59.44,57.18-15.19,119.69,14.48,129.52,75.26,3.65,22.59.23,46-7.78,67.45-21,56.1-85.3,73.84-139.19,55.63l15.32-42.9c-.49,1.38,40.25-.1,43.23-.83,31.46-7.71,42.65-34.08,39.2-65-1.41-12.68-6.53-25.34-16.13-33.76-9.07-8-21.47-11.48-33.53-11.34-15.44.18-30.27,5.76-43.76,12.87-39.56,20.85-82.91,54.19-128.95,56.77-39.9,2.23-81.1-19-100.53-54.27-23-41.83-12-91.37,18-126S460.25,1682,501.28,1692Z"/><path class="cls-2" d="M1903.7,521.59c-17.54-49.06-57-85.63-101.82-110.31-70.6-38.9-165.36-29-235.4,5.57L1408.17,495l236.94,782.3,75.57-22L1613.45,875.45c.55,1.93,64.33-18.09,68-19.34,82.83-28.2,185.18-75.65,218.12-163.55C1919.64,639.05,1923.08,575.8,1903.7,521.59Zm-70.27,122.9c-12,52.8-51.08,88.09-98.42,110.71-11.6,5.54-146.07,52.63-147.09,49.27l-84.77-277.79c67-27.93,137.61-70.69,212.82-60.45,41,5.59,81,25.46,103,61.63C1840.1,562.43,1842.2,605.77,1833.43,644.49Z"/><path class="cls-3" d="M181.23,2188.63c-87.93,891.15,436.4,1433.08,436.4,1433.08C391.18,3033,503.56,2577.06,593.93,2352.59l166.68,65c-9.35-3.64-64.17,176.62-66.73,186.64C652,2767.66,642.75,2939,661.14,3106.39c24.76,225.5,98.71,448.35,215.76,642.7,53.69,89.15,116.6,172.9,188.49,248.19C1195.2,4133.23,1352.25,4242.71,1524,4319a1509.28,1509.28,0,0,0,382.89,112.22c128.42,19.71,252.94,29.05,382.62,15.77,534.85-54.76,1073.68-412.46,1254.61-935.15,28.89-83.48,50-169.6,68.17-256q8.52-40.61,16.06-81.42c-.47,2.56,4,10.94,4.64,13.66,4.22,16.77,4.08,35,3.55,52.15-3.49,113.94-40.28,232.08-84.24,336.59-42.17,100.27-98.72,194.11-164,281-45.64,60.74-95.6,118.18-148.64,172.56a1606.37,1606.37,0,0,1-183.87,162.38c-180.5,135.78-408.46,229.29-630.18,269.58q-21,3.81-42.11,6.89C1654.66,4575,887.3,4255.37,439.32,3675.53c-84.44-109.29-161-225.3-221.56-349.64-27.75-57-47.09-117.64-70.38-176.51-24.59-62.17-50.29-124.11-67.86-188.73-30.32-111.5-56.09-223.43-65.82-338.78Q2.83,2492.78,3.56,2363.05q.4-58.92,3.53-117.77c.59-10.91,13.06-118.57,10-119.74Z"/><path class="cls-4" d="M2890.25,2936.8c-17-8.78-33.32-17-49.42-24.49a768.68,768.68,0,0,0-94.68-37,683.81,683.81,0,0,0-93.81-22.29q-18.84-3.11-37.75-5.12,21.27-17.1,41.11-36.42c12.44-12.07,24.38-24.93,35.82-38.44a519.93,519.93,0,0,0,32.66-42.85c5.13-7.54,10.12-15.31,14.93-23.22,2.38-4,4.77-8,7.07-12.1s4.56-8.26,6.78-12.42a442.65,442.65,0,0,0,23.76-53.16c3.43-9.35,6.59-18.95,9.33-28.85l2-7.45c.66-2.47,1.24-5,1.83-7.58,1.21-5.08,2.24-10.17,3.19-15.42.5-2.59.87-5.27,1.29-7.88l.6-4,.49-4c.29-2.7.64-5.33.85-8s.42-5.47.56-8.21l.16-4.12c0-1.38.12-2.72.1-4.14,0-2.82,0-5.59-.12-8.41a132.49,132.49,0,0,0-1.67-17.07l-61.62,9c-18.91,2.9-37,5.82-54.37,9.25a770,770,0,0,0-98.35,25.74,683.84,683.84,0,0,0-89,37.13q-17.07,8.57-33.54,18.06,7.14-26.34,11.83-53.64c3-17.07,5.06-34.5,6.37-52.15a522.71,522.71,0,0,0,1.22-53.87c-.29-9.11-.82-18.33-1.58-27.55-.44-4.66-.85-9.29-1.4-14s-1.17-9.36-1.81-14a443.47,443.47,0,0,0-12.05-57c-2.73-9.58-5.81-19.2-9.42-28.82l-2.75-7.21c-.92-2.39-1.95-4.79-3-7.21-2-4.82-4.18-9.55-6.49-14.35-1.12-2.38-2.4-4.77-3.59-7.13l-1.84-3.54-2-3.56c-1.35-2.36-2.62-4.69-4.05-7s-2.87-4.66-4.37-7l-2.29-3.43c-.78-1.15-1.51-2.27-2.36-3.41-1.66-2.27-3.29-4.51-5-6.72a132.2,132.2,0,0,0-11.39-12.84L2358,2262.48c-13.59,13.46-26.47,26.44-38.53,39.45a770.09,770.09,0,0,0-64.42,78.65,683.9,683.9,0,0,0-50.14,82.36q-8.34,16.16-15.78,32.68-9.39-24.64-21.17-48.68c-7.59-15.57-16.1-30.92-25.38-46a521.85,521.85,0,0,0-30.56-44.38c-5.56-7.21-11.39-14.37-17.41-21.41-3.08-3.51-6.13-7-9.3-10.48s-6.43-6.9-9.69-10.32a443.21,443.21,0,0,0-43.13-39.12c-7.82-6.17-16-12.16-24.51-17.84l-6.45-4.24c-2.15-1.4-4.39-2.73-6.63-4.09-4.47-2.73-9-5.3-13.67-7.84-2.31-1.27-4.74-2.46-7.09-3.68l-3.56-1.79-3.69-1.72c-2.48-1.12-4.87-2.27-7.39-3.32s-5.06-2.1-7.62-3.08l-3.87-1.45c-1.3-.47-2.54-.95-3.91-1.38-2.68-.87-5.3-1.73-8-2.49a132.61,132.61,0,0,0-16.75-3.74l-10.6,61.37c-3.13,18.88-6,36.94-8.13,54.55a768.26,768.26,0,0,0-6.16,101.48,684.87,684.87,0,0,0,7.59,96.12q2.84,18.87,6.72,37.49-22.8-15-47.29-27.94c-15.3-8.13-31.2-15.55-47.58-22.29a524.18,524.18,0,0,0-50.81-17.92c-8.74-2.56-17.67-4.93-26.67-7.08-4.56-1-9.1-2.08-13.69-3s-9.26-1.8-13.9-2.64a441,441,0,0,0-57.89-6.28c-10-.4-20.06-.47-30.32,0l-7.71.36c-2.56.13-5.16.37-7.77.59-5.21.42-10.38,1-15.66,1.7-2.62.32-5.28.79-7.9,1.19l-3.94.64-4,.78c-2.66.55-5.28,1-7.93,1.66s-5.33,1.28-8,2l-4,1.11c-1.32.38-2.61.72-4,1.18-2.68.87-5.31,1.72-8,2.7a133.11,133.11,0,0,0-15.75,6.82l27.52,55.88c8.56,17.11,16.88,33.39,25.49,48.9a770.06,770.06,0,0,0,54.69,85.7,684.29,684.29,0,0,0,62.66,73.28q13.39,13.6,27.49,26.38c-18.18.86-36.41,2.56-54.68,5.2q-25.74,3.64-51.59,10A521.9,521.9,0,0,0,1566,2823.8c-8.58,3.06-17.19,6.4-25.74,9.95-4.29,1.85-8.58,3.67-12.84,5.62s-8.55,4-12.8,6a442.37,442.37,0,0,0-50.52,29c-8.28,5.53-16.49,11.42-24.53,17.81l-6,4.83c-2,1.61-4,3.33-5.94,5-4,3.41-7.81,6.9-11.67,10.58-1.93,1.81-3.81,3.75-5.69,5.61l-2.8,2.84-2.78,3c-1.83,2-3.66,3.93-5.43,6s-3.56,4.17-5.29,6.3l-2.56,3.24c-.85,1.08-1.7,2.12-2.52,3.29-1.66,2.28-3.29,4.51-4.85,6.86a133.86,133.86,0,0,0-8.72,14.78l55.11,29c17,8.81,33.29,17.08,49.38,24.57a768.69,768.69,0,0,0,94.63,37.15,682.13,682.13,0,0,0,93.77,22.43q18.84,3.14,37.74,5.17-21.29,17.08-41.16,36.37c-12.46,12-24.42,24.89-35.88,38.38a522,522,0,0,0-32.72,42.81c-5.14,7.53-10.14,15.29-15,23.19-2.38,4-4.78,8-7.08,12.09s-4.57,8.26-6.8,12.41a444.08,444.08,0,0,0-23.84,53.13c-3.44,9.35-6.62,18.94-9.37,28.84l-2,7.44c-.67,2.47-1.25,5-1.84,7.57-1.22,5.09-2.26,10.18-3.22,15.42-.5,2.59-.88,5.27-1.3,7.88l-.6,4-.5,4c-.3,2.7-.64,5.33-.86,8s-.43,5.46-.57,8.21l-.17,4.12c0,1.38-.12,2.71-.11,4.14,0,2.82,0,5.58.12,8.4a132.49,132.49,0,0,0,1.63,17.08l61.64-8.93c18.92-2.87,37-5.77,54.38-9.17a771.7,771.7,0,0,0,98.4-25.59,684.58,684.58,0,0,0,89-37q17.07-8.55,33.57-18-7.18,26.33-11.92,53.62c-3,17.07-5.11,34.49-6.44,52.14a522.53,522.53,0,0,0-1.3,53.87c.27,9.11.79,18.33,1.53,27.56.44,4.65.85,9.28,1.39,13.94s1.15,9.37,1.79,14a443.58,443.58,0,0,0,12,57c2.71,9.58,5.78,19.21,9.38,28.83l2.74,7.21c.91,2.39,1.94,4.79,3,7.21,2,4.83,4.16,9.56,6.47,14.36,1.12,2.39,2.39,4.78,3.58,7.14l1.83,3.55,2,3.55c1.35,2.37,2.61,4.7,4,7s2.87,4.67,4.37,7l2.28,3.44c.78,1.14,1.5,2.26,2.36,3.41,1.66,2.27,3.28,4.51,5,6.73a131.91,131.91,0,0,0,11.37,12.85l44.6-43.47c13.61-13.45,26.51-26.41,38.59-39.4a769.68,769.68,0,0,0,64.54-78.55,682.78,682.78,0,0,0,50.25-82.29q8.79-16.93,16.57-34.3,9.68,25.51,21.89,50.38c7.62,15.56,16.15,30.9,25.45,46a521.06,521.06,0,0,0,30.62,44.33c5.58,7.21,11.42,14.36,17.45,21.39,3.08,3.51,6.14,7,9.32,10.47s6.44,6.89,9.7,10.3a443.51,443.51,0,0,0,43.19,39.06c7.82,6.15,16,12.14,24.54,17.81l6.45,4.22c2.15,1.39,4.39,2.73,6.64,4.09,4.46,2.72,9,5.28,13.68,7.81,2.3,1.27,4.74,2.46,7.09,3.67l3.57,1.79,3.69,1.71c2.47,1.12,4.87,2.27,7.39,3.31s5.06,2.1,7.63,3.07l3.87,1.44c1.29.47,2.54.95,3.91,1.38,2.68.86,5.31,1.72,8,2.48a133.13,133.13,0,0,0,16.76,3.71L2413,3651.1c3.11-18.88,5.92-36.95,8.05-54.55a771.23,771.23,0,0,0,6-101.49,682.93,682.93,0,0,0-7.74-96.11q-2.85-18.87-6.77-37.49,22.83,15,47.33,27.88c15.31,8.1,31.23,15.5,47.61,22.21a522.77,522.77,0,0,0,50.84,17.85c8.75,2.55,17.68,4.9,26.69,7,4.56,1,9.09,2.07,13.69,3s9.26,1.79,13.9,2.62a441.27,441.27,0,0,0,57.9,6.2c10,.38,20.06.43,30.33,0l7.7-.38c2.56-.14,5.16-.38,7.77-.6,5.21-.43,10.37-1,15.66-1.72,2.61-.33,5.28-.8,7.89-1.2l3.94-.66,4-.78c2.67-.55,5.28-1,7.93-1.67s5.33-1.28,8-2l4-1.12c1.33-.38,2.62-.72,4-1.18,2.68-.88,5.31-1.73,7.95-2.71a134,134,0,0,0,15.74-6.85l-27.6-55.84c-8.59-17.09-16.94-33.36-25.56-48.86a770,770,0,0,0-54.83-85.62,684,684,0,0,0-62.76-73.19q-13.41-13.59-27.53-26.33,27.27-1.33,54.68-5.29c17.15-2.45,34.37-5.83,51.57-10a523,523,0,0,0,51.62-15.46c8.57-3.08,17.18-6.43,25.72-10,4.29-1.86,8.57-3.68,12.83-5.64s8.55-4,12.79-6.05a443.34,443.34,0,0,0,50.48-29c8.27-5.54,16.48-11.44,24.51-17.85l6-4.84c2-1.61,3.95-3.33,5.93-5,4-3.41,7.8-6.91,11.66-10.6,1.92-1.8,3.8-3.75,5.67-5.61l2.8-2.84,2.77-3c1.83-2,3.66-3.94,5.43-6s3.56-4.17,5.28-6.31l2.56-3.24c.85-1.08,1.69-2.12,2.51-3.29,1.65-2.28,3.28-4.52,4.84-6.87a132.35,132.35,0,0,0,8.7-14.79Z"/><path class="cls-5" d="M2160.34,2265.47l1.47,1.36,1.4,1.37,2.78,2.74c1.79,1.82,3.57,3.64,5.25,5.47,3.44,3.64,6.66,7.29,9.81,10.94,6.27,7.29,12,14.59,17.53,21.88a491.05,491.05,0,0,1,29.06,43.77,501.63,501.63,0,0,1,40.63,87.53,517,517,0,0,1,22.4,87.53,543.86,543.86,0,0,1,7.17,87.53,534.68,534.68,0,0,1-6.91,87.53q-3.51,21.89-9.07,43.76c-3.66,14.59-8.1,29.18-13.19,43.77a498.07,498.07,0,0,1-40.7,87.53,482.94,482.94,0,0,1-29.19,43.76c-5.52,7.3-11.31,14.59-17.61,21.89-3.17,3.64-6.41,7.29-9.86,10.94-1.7,1.82-3.48,3.64-5.28,5.47l-2.8,2.73-1.41,1.37-1.48,1.37-1.48-1.37-1.4-1.37-2.8-2.73c-1.8-1.83-3.58-3.65-5.28-5.47-3.46-3.65-6.69-7.3-9.87-10.94-6.3-7.3-12.08-14.59-17.61-21.89a482.79,482.79,0,0,1-29.18-43.76,497.35,497.35,0,0,1-40.7-87.53c-5.09-14.59-9.53-29.18-13.19-43.77s-6.73-29.17-9.08-43.76a535.77,535.77,0,0,1-6.9-87.53,542.72,542.72,0,0,1,7.17-87.53,517,517,0,0,1,22.4-87.53,501.63,501.63,0,0,1,40.63-87.53,488.88,488.88,0,0,1,29.06-43.77c5.5-7.29,11.26-14.59,17.53-21.88,3.15-3.65,6.37-7.3,9.8-10.94,1.69-1.83,3.47-3.65,5.26-5.47l2.78-2.74,1.39-1.37Z"/><path class="cls-5" d="M2571.94,2399.2l.38,2,.33,1.93.64,3.85c.38,2.52.74,5,1,7.51.64,5,1.1,9.81,1.51,14.62.78,9.58,1.15,18.87,1.31,28a491.16,491.16,0,0,1-2.21,52.49,501.48,501.48,0,0,1-18.58,94.69,516,516,0,0,1-33.33,84,542.16,542.16,0,0,1-45.64,75,536,536,0,0,1-57,66.76q-15.71,15.63-33.06,30.07c-11.54,9.65-23.71,18.84-36.4,27.65a497.87,497.87,0,0,1-84.38,46.89,483.52,483.52,0,0,1-49.33,18.26c-8.76,2.65-17.73,5.15-27.11,7.35-4.71,1.08-9.48,2.13-14.41,3.05-2.45.48-5,.91-7.49,1.32l-3.88.57-1.94.28-2,.24-.39-2-.33-1.93-.66-3.86c-.38-2.53-.75-5.05-1.06-7.53-.65-5-1.12-9.83-1.55-14.65-.8-9.6-1.2-18.91-1.38-28.05a484.85,484.85,0,0,1,2.11-52.56,497.65,497.65,0,0,1,18.53-94.74c4.45-14.79,9.43-29.21,15-43.16s11.7-27.56,18.38-40.74a536.15,536.15,0,0,1,45.86-74.87,542.83,542.83,0,0,1,57.26-66.6,517.26,517.26,0,0,1,69.57-57.65,502.12,502.12,0,0,1,84.32-46.93,490.63,490.63,0,0,1,49.23-18.33c8.74-2.66,17.69-5.18,27-7.4,4.7-1.09,9.45-2.15,14.37-3.08,2.43-.49,4.94-.92,7.46-1.34l3.86-.58,1.93-.29Z"/><path class="cls-5" d="M2826.31,2749.32l-.84,1.82-.87,1.75-1.74,3.49c-1.18,2.27-2.37,4.52-3.58,6.69-2.41,4.39-4.88,8.58-7.38,12.71-5,8.21-10.16,15.94-15.39,23.43a488.41,488.41,0,0,1-32.65,41.16,501.75,501.75,0,0,1-70.69,65.69,517.56,517.56,0,0,1-76.32,48.35,543,543,0,0,1-81,33.87,535,535,0,0,1-85.38,20.48q-21.9,3.42-44.43,4.9c-15,1-30.25,1.31-45.7,1a498.21,498.21,0,0,1-95.82-11.67,480.83,480.83,0,0,1-50.64-14.23c-8.65-3-17.37-6.25-26.26-10-4.45-1.9-8.92-3.85-13.45-6-2.26-1.06-4.55-2.19-6.84-3.34l-3.46-1.81-1.74-.92-1.76-1,.85-1.83.86-1.76,1.74-3.51c1.18-2.27,2.36-4.53,3.57-6.71,2.4-4.41,4.87-8.62,7.36-12.76,5-8.25,10.14-16,15.37-23.51a485.49,485.49,0,0,1,32.6-41.28,497.64,497.64,0,0,1,70.67-65.76c12.3-9.35,24.81-18.08,37.55-26.07s25.67-15.42,38.82-22.16a535.61,535.61,0,0,1,81.11-33.61,543.6,543.6,0,0,1,85.46-20.23,517.64,517.64,0,0,1,90.17-5.74,501.6,501.6,0,0,1,95.8,11.59,491.36,491.36,0,0,1,50.61,14.11c8.63,3,17.35,6.21,26.22,9.91,4.45,1.87,8.91,3.81,13.44,6,2.26,1,4.54,2.16,6.83,3.3l3.46,1.8,1.73.91Z"/><path class="cls-5" d="M2826.31,3182.1l-1.75,1-1.73.91-3.46,1.8c-2.29,1.14-4.57,2.26-6.83,3.3-4.53,2.14-9,4.07-13.44,6-8.87,3.7-17.59,6.93-26.22,9.9a489,489,0,0,1-50.61,14.12,502.4,502.4,0,0,1-95.8,11.59,517.64,517.64,0,0,1-90.17-5.74,543.6,543.6,0,0,1-85.46-20.23,534.64,534.64,0,0,1-81.11-33.62q-19.72-10.11-38.82-22.15c-12.74-8-25.25-16.72-37.55-26.07a498.22,498.22,0,0,1-70.67-65.76,485.49,485.49,0,0,1-32.6-41.28c-5.23-7.5-10.38-15.26-15.37-23.51-2.49-4.15-5-8.35-7.36-12.76-1.21-2.18-2.39-4.44-3.57-6.72l-1.74-3.5-.86-1.76-.85-1.83,1.76-1,1.74-.91,3.46-1.81c2.29-1.15,4.58-2.29,6.84-3.34,4.53-2.16,9-4.11,13.45-6,8.89-3.74,17.61-7,26.26-10a485.69,485.69,0,0,1,50.64-14.23,498.17,498.17,0,0,1,95.82-11.66c15.45-.33,30.69-.05,45.7,1s29.83,2.62,44.43,4.9a535,535,0,0,1,85.38,20.48,543,543,0,0,1,81,33.87,516.73,516.73,0,0,1,76.32,48.35,501.75,501.75,0,0,1,70.69,65.69,488.41,488.41,0,0,1,32.65,41.16c5.23,7.48,10.39,15.22,15.39,23.43,2.5,4.13,5,8.32,7.38,12.71,1.21,2.17,2.4,4.42,3.58,6.69l1.74,3.49.87,1.75Z"/><path class="cls-5" d="M2571.94,3532.22l-2-.24-1.93-.29-3.86-.58c-2.52-.42-5-.85-7.46-1.34-4.93-.93-9.67-2-14.37-3.08-9.36-2.22-18.3-4.74-27-7.41a488.19,488.19,0,0,1-49.23-18.32,502.12,502.12,0,0,1-84.32-46.93,518,518,0,0,1-69.58-57.65,544.36,544.36,0,0,1-57.25-66.6,536.73,536.73,0,0,1-45.86-74.87q-10-19.77-18.38-40.74c-5.62-14-10.6-28.37-15.06-43.16a498.43,498.43,0,0,1-18.52-94.74,485.06,485.06,0,0,1-2.11-52.56c.18-9.15.58-18.45,1.38-28.05.43-4.82.9-9.67,1.55-14.65.31-2.48.68-5,1.06-7.54l.66-3.85.33-1.93.39-2,2,.24,1.94.28,3.88.57c2.53.41,5,.84,7.49,1.31,4.93.93,9.7,2,14.41,3.06,9.38,2.2,18.35,4.7,27.11,7.35a485.89,485.89,0,0,1,49.33,18.25,497.87,497.87,0,0,1,84.38,46.89c12.69,8.82,24.86,18,36.39,27.66s22.6,19.65,33.07,30.07a535.24,535.24,0,0,1,57,66.76,542.64,542.64,0,0,1,45.64,75,517.37,517.37,0,0,1,33.33,84,502.27,502.27,0,0,1,18.58,94.69,491.16,491.16,0,0,1,2.21,52.49c-.16,9.13-.53,18.42-1.31,28-.41,4.81-.87,9.65-1.51,14.62-.29,2.47-.65,5-1,7.51l-.64,3.85-.33,1.93Z"/><path class="cls-5" d="M2160.34,3666l-1.47-1.37-1.39-1.36-2.78-2.74c-1.8-1.82-3.57-3.65-5.26-5.47-3.43-3.65-6.65-7.29-9.8-10.94-6.27-7.29-12-14.59-17.53-21.88a488.88,488.88,0,0,1-29.06-43.77,502,502,0,0,1-40.63-87.53,517.24,517.24,0,0,1-22.4-87.53,542.81,542.81,0,0,1-7.17-87.53,535.68,535.68,0,0,1,6.9-87.53q3.52-21.89,9.08-43.77c3.66-14.58,8.1-29.17,13.19-43.76a497.35,497.35,0,0,1,40.7-87.53,484.31,484.31,0,0,1,29.18-43.77c5.53-7.29,11.31-14.58,17.61-21.88,3.18-3.65,6.41-7.29,9.87-10.94,1.7-1.82,3.48-3.65,5.28-5.47l2.8-2.74,1.4-1.36,1.48-1.37,1.48,1.37,1.41,1.36,2.8,2.74c1.8,1.82,3.58,3.65,5.28,5.47,3.45,3.65,6.69,7.29,9.86,10.94,6.3,7.3,12.09,14.59,17.61,21.88a484.47,484.47,0,0,1,29.19,43.77,498.07,498.07,0,0,1,40.7,87.53c5.09,14.59,9.53,29.18,13.19,43.77s6.73,29.17,9.07,43.76a534.59,534.59,0,0,1,6.91,87.53,544,544,0,0,1-7.17,87.53,518.19,518.19,0,0,1-22.4,87.53,502,502,0,0,1-40.63,87.53,491.05,491.05,0,0,1-29.06,43.77c-5.5,7.29-11.26,14.59-17.53,21.88-3.15,3.65-6.37,7.29-9.81,10.94-1.69,1.82-3.46,3.65-5.25,5.47l-2.78,2.74-1.4,1.36Z"/><path class="cls-5" d="M1748.75,3532.22l-.39-2-.32-1.93-.64-3.85c-.38-2.53-.74-5-1-7.51-.63-5-1.09-9.81-1.5-14.62-.78-9.58-1.15-18.87-1.32-28a488.28,488.28,0,0,1,2.22-52.49,501.74,501.74,0,0,1,18.58-94.7,517.6,517.6,0,0,1,33.32-84,543.68,543.68,0,0,1,45.65-75,535.24,535.24,0,0,1,57-66.76q15.7-15.63,33.06-30.07c11.54-9.65,23.71-18.85,36.4-27.66a497.87,497.87,0,0,1,84.38-46.89,485.89,485.89,0,0,1,49.33-18.25c8.75-2.65,17.73-5.15,27.11-7.35,4.71-1.09,9.47-2.13,14.41-3.06,2.45-.47,5-.9,7.49-1.31l3.87-.57,1.94-.28,2-.24.4,2,.33,1.93.66,3.85c.38,2.54.75,5.06,1.05,7.54.65,5,1.13,9.83,1.55,14.65.81,9.6,1.21,18.9,1.39,28.05a485,485,0,0,1-2.12,52.56,497.65,497.65,0,0,1-18.52,94.74c-4.46,14.79-9.44,29.2-15,43.16s-11.71,27.56-18.38,40.74a535.84,535.84,0,0,1-45.87,74.87,542.63,542.63,0,0,1-57.25,66.6A517.89,517.89,0,0,1,1939,3454a502.12,502.12,0,0,1-84.32,46.93,488.19,488.19,0,0,1-49.23,18.32c-8.74,2.67-17.69,5.19-27.05,7.4-4.69,1.1-9.44,2.16-14.36,3.09-2.44.48-4.94.92-7.47,1.34l-3.85.58-1.94.28Z"/><path class="cls-5" d="M1494.37,3182.09l.85-1.82.87-1.75,1.74-3.49c1.18-2.26,2.37-4.51,3.58-6.68,2.41-4.4,4.88-8.58,7.38-12.71,5-8.21,10.15-15.95,15.39-23.43a490.37,490.37,0,0,1,32.64-41.16,501.81,501.81,0,0,1,70.7-65.69,517.11,517.11,0,0,1,76.32-48.36,543.55,543.55,0,0,1,81-33.86,536.14,536.14,0,0,1,85.38-20.49q21.9-3.41,44.43-4.89c15-1,30.25-1.31,45.7-1a497.57,497.57,0,0,1,95.82,11.66,486.38,486.38,0,0,1,50.64,14.23c8.65,3,17.37,6.25,26.26,10,4.45,1.89,8.91,3.84,13.45,6,2.26,1.05,4.54,2.19,6.83,3.34l3.47,1.81,1.74.91,1.75,1-.84,1.83-.87,1.76-1.73,3.5c-1.18,2.28-2.36,4.54-3.57,6.72-2.4,4.41-4.87,8.61-7.36,12.76-5,8.25-10.14,16-15.37,23.51a483.56,483.56,0,0,1-32.61,41.28,498.16,498.16,0,0,1-70.66,65.76c-12.31,9.35-24.81,18.08-37.55,26.07s-25.67,15.41-38.82,22.15a535.49,535.49,0,0,1-81.11,33.62,543.72,543.72,0,0,1-85.47,20.23,517.53,517.53,0,0,1-90.16,5.74,502.5,502.5,0,0,1-95.81-11.59,491.31,491.31,0,0,1-50.6-14.12c-8.64-3-17.35-6.2-26.23-9.9-4.44-1.88-8.9-3.81-13.43-6-2.26-1-4.54-2.16-6.83-3.31l-3.46-1.8-1.73-.9Z"/><path class="cls-5" d="M1494.37,2749.32l1.76-1,1.73-.9,3.46-1.8c2.29-1.14,4.57-2.26,6.83-3.3,4.53-2.14,9-4.08,13.43-6,8.88-3.71,17.59-6.93,26.23-9.91a489.39,489.39,0,0,1,50.6-14.11,501.7,501.7,0,0,1,95.81-11.59,517.53,517.53,0,0,1,90.16,5.74,543.46,543.46,0,0,1,85.47,20.23,536.46,536.46,0,0,1,81.11,33.61q19.72,10.11,38.82,22.16c12.74,8,25.24,16.72,37.55,26.07a497.58,497.58,0,0,1,70.66,65.76,483.56,483.56,0,0,1,32.61,41.28c5.23,7.5,10.38,15.26,15.37,23.51,2.49,4.14,5,8.35,7.36,12.76,1.21,2.18,2.39,4.44,3.57,6.71l1.73,3.51.87,1.76.84,1.83-1.75,1-1.74.92-3.47,1.81c-2.29,1.15-4.57,2.28-6.83,3.34-4.54,2.15-9,4.1-13.45,6-8.89,3.73-17.61,7-26.26,10A481.5,481.5,0,0,1,2056.2,3003a497.57,497.57,0,0,1-95.82,11.66c-15.45.34-30.7,0-45.7-1s-29.83-2.62-44.43-4.9a535,535,0,0,1-85.38-20.48,542.55,542.55,0,0,1-81-33.87,517,517,0,0,1-76.32-48.35,501.81,501.81,0,0,1-70.7-65.69,490.37,490.37,0,0,1-32.64-41.16c-5.24-7.49-10.39-15.22-15.39-23.43-2.5-4.13-5-8.32-7.38-12.71-1.21-2.17-2.4-4.42-3.58-6.69l-1.74-3.49-.87-1.75Z"/><path class="cls-5" d="M1748.75,2399.2l2,.24,1.93.29,3.86.58c2.52.42,5,.85,7.46,1.33,4.92.94,9.67,2,14.37,3.09,9.35,2.22,18.3,4.73,27,7.4a490.63,490.63,0,0,1,49.23,18.33,501.42,501.42,0,0,1,84.32,46.93,517.26,517.26,0,0,1,69.57,57.65,541.88,541.88,0,0,1,57.25,66.6,535.26,535.26,0,0,1,45.87,74.87q10,19.77,18.38,40.74c5.61,13.95,10.6,28.37,15,43.16a497.65,497.65,0,0,1,18.52,94.74,484.8,484.8,0,0,1,2.12,52.56c-.18,9.14-.58,18.45-1.39,28.05-.42,4.82-.9,9.67-1.55,14.65-.3,2.48-.67,5-1.05,7.53l-.66,3.86-.33,1.93-.4,2-2-.24-1.94-.28-3.87-.57c-2.53-.41-5-.84-7.49-1.32-4.94-.92-9.7-2-14.41-3.05-9.38-2.2-18.36-4.7-27.11-7.35a483.52,483.52,0,0,1-49.33-18.26,497.87,497.87,0,0,1-84.38-46.89c-12.69-8.81-24.86-18-36.4-27.65s-22.59-19.65-33.06-30.07a536,536,0,0,1-57-66.76,542.75,542.75,0,0,1-45.64-75,516,516,0,0,1-33.33-84,501.64,501.64,0,0,1-18.58-94.69,486,486,0,0,1-2.21-52.49c.16-9.13.53-18.42,1.31-28,.41-4.8.87-9.64,1.5-14.61.3-2.47.66-5,1-7.52l.64-3.84.33-1.93Z"/><circle class="cls-6" cx="2157.87" cy="2959.23" r="392.85"/><circle class="cls-7" cx="2157.87" cy="2959.23" r="392.85"/><path class="cls-8" d="M3603.27,3434.75c18.61-64,31.29-130,33.27-194.55.41-13.27.59-27.21-1.31-40.61a501.78,501.78,0,0,0,18.9,61.84c14,38,31.92,74.42,60.21,103.83,12.25,12.74,24.27,26,32.65,41.68,10.43,19.55,11.91,41,7.1,62.45-3.27,14.59-11.65,24.41-22.51,34.18-29.65,26.68-79.73,28.74-107.85-1.73-15.13-16.4-20.94-39.05-22.31-60.81Z"/><path class="cls-9" d="M3633.1,3285.75c-.33-3.47-.46-6.9-.53-10.33s-.09-6.84-.05-10.25.13-6.81.27-10.21.31-6.79.67-10.18c.71-6.78,2-13.57,2.21-20.38a86.51,86.51,0,0,0-1.81-20.26c-.66-3.33-1.53-6.59-2.37-9.82-.22-.8-.45-1.6-.65-2.41l-.69-2.39c-.45-1.58-1-3-1.55-4.6a81.21,81.21,0,0,1-3.54-10,25.94,25.94,0,0,1-.57-2.84c-.08-.48-.11-1-.17-1.46s-.05-.88-.08-1.33c-.09-1.73-.15-3.46-.21-5.18s-.09-3.46-.09-5.19v-2.59c0-.86,0-1.71.06-2.57l.19-5.17c.09-1.73.23-3.46.38-5.2.66-6.92,1.91-14,4.89-20.34l.68.18c-.3,3.44-.44,6.81-.44,10.17,0,1.69.06,3.37.12,5.05s.19,3.35.26,5l1.43,20.28c.1,1.68.17,3.37.23,5.06,0,.89.07,1.59.15,2.31s.17,1.47.32,2.21c.55,3,1.66,6.1,2.66,9.49a48.52,48.52,0,0,1,1.31,5.25c.33,1.73.65,3.46.84,5.21a102.16,102.16,0,0,1,.66,10.46c.1,7,0,13.81.26,20.67s1.16,13.73,1.36,20.62a93.17,93.17,0,0,1-.29,10.3q-.36,5.13-1,10.25c-.45,3.41-1,6.81-1.68,10.19a99.24,99.24,0,0,1-2.48,10.07Z"/></g></g></svg>